<svg width="4973" height="7038" viewBox="0 0 4973 7038" fill="none" xmlns="http://www.w3.org/2000/svg">
<rect width="1191.02" height="1247.89" transform="matrix(0 1 1 0 1226.58 507.443)" fill="#4B4B4B" fill-opacity="0.02" stroke="white" stroke-opacity="0.1" stroke-width="2"/>
<rect width="1191.02" height="1247.89" transform="matrix(0 1 1 0 2474.04 507.443)" fill="#4B4B4B" fill-opacity="0.02" stroke="white" stroke-opacity="0.1" stroke-width="2"/>
<rect width="2382.05" height="2495.77" transform="matrix(0 1 1 0 -21.2524 1698.47)" fill="#4B4B4B" fill-opacity="0.02" stroke="white" stroke-opacity="0.1" stroke-width="2"/>
<rect width="2382.05" height="2495.77" transform="matrix(0 1 1 0 2474.52 2889.49)" fill="#4B4B4B" fill-opacity="0.02" stroke="white" stroke-opacity="0.1" stroke-width="2"/>
<rect width="1191.02" height="1247.89" transform="matrix(0 1 1 0 2474.52 1698.47)" fill="#4B4B4B" fill-opacity="0.02" stroke="white" stroke-opacity="0.1" stroke-width="2"/>
<rect width="1191.02" height="1247.89" transform="matrix(0 1 1 0 1226.58 4080.51)" fill="#4B4B4B" fill-opacity="0.02" stroke="white" stroke-opacity="0.1" stroke-width="2"/>
<rect width="1191.02" height="1247.89" transform="matrix(0 1 1 0 1226.58 5271.53)" fill="#4B4B4B" fill-opacity="0.02" stroke="white" stroke-opacity="0.1" stroke-width="2"/>
<rect width="1191.02" height="1247.89" transform="matrix(0 1 1 0 2474.04 5271.53)" fill="#4B4B4B" fill-opacity="0.02" stroke="white" stroke-opacity="0.1" stroke-width="2"/>
<ellipse cx="1191.02" cy="1247.41" rx="1191.02" ry="1247.41" transform="matrix(0 1 1 0 -20.2935 2889.49)" fill="#4B4B4B" fill-opacity="0.02" stroke="white" stroke-opacity="0.1" stroke-width="2"/>
<ellipse cx="1191.02" cy="1247.41" rx="1191.02" ry="1247.41" transform="matrix(0 1 1 0 2474.52 1698.47)" fill="#4B4B4B" fill-opacity="0.02" stroke="white" stroke-opacity="0.1" stroke-width="2"/>
<ellipse cx="595.511" cy="623.704" rx="595.511" ry="623.704" transform="matrix(0 1 1 0 3098.22 5867.05)" fill="#4B4B4B" fill-opacity="0.02" stroke="white" stroke-opacity="0.1" stroke-width="2"/>
<ellipse cx="595.511" cy="623.704" rx="595.511" ry="623.704" transform="matrix(0 1 1 0 603.36 -88.0679)" fill="#4B4B4B" fill-opacity="0.02" stroke="white" stroke-opacity="0.1" stroke-width="2"/>
<line x1="1257.77" y1="2881.41" x2="1196.36" y2="2881.41" stroke="white" stroke-opacity="0.1" stroke-width="2"/>
<line x1="1228.46" y1="2911.95" x2="1228.46" y2="2853.45" stroke="white" stroke-opacity="0.1" stroke-width="2"/>
<line x1="10.4111" y1="2881.41" x2="-50.9997" y2="2881.41" stroke="white" stroke-opacity="0.1" stroke-width="2"/>
<line x1="10.4111" y1="5228.78" x2="-50.9997" y2="5228.78" stroke="white" stroke-opacity="0.1" stroke-width="2"/>
<line x1="10.4111" y1="6446.33" x2="-50.9997" y2="6446.33" stroke="white" stroke-opacity="0.1" stroke-width="2"/>
<line x1="1257.77" y1="6446.33" x2="1196.36" y2="6446.33" stroke="white" stroke-opacity="0.1" stroke-width="2"/>
<line x1="1228.46" y1="6476.87" x2="1228.46" y2="6418.37" stroke="white" stroke-opacity="0.1" stroke-width="2"/>
<line x1="2504.27" y1="6446.33" x2="2442.85" y2="6446.33" stroke="white" stroke-opacity="0.1" stroke-width="2"/>
<line x1="2474.96" y1="6476.87" x2="2474.96" y2="6418.37" stroke="white" stroke-opacity="0.1" stroke-width="2"/>
<line x1="10.4111" y1="504.798" x2="-50.9997" y2="504.798" stroke="white" stroke-opacity="0.1" stroke-width="2"/>
<line x1="10.4111" y1="1693.1" x2="-50.9997" y2="1693.1" stroke="white" stroke-opacity="0.1" stroke-width="2"/>
<line x1="1257.77" y1="504.798" x2="1196.36" y2="504.798" stroke="white" stroke-opacity="0.1" stroke-width="2"/>
<line x1="1228.46" y1="535.336" x2="1228.46" y2="476.835" stroke="white" stroke-opacity="0.1" stroke-width="2"/>
<line x1="3753.12" y1="4069.72" x2="3691.71" y2="4069.72" stroke="white" stroke-opacity="0.1" stroke-width="2"/>
<line x1="3723.81" y1="4100.26" x2="3723.81" y2="4041.75" stroke="white" stroke-opacity="0.1" stroke-width="2"/>
<line x1="3753.12" y1="6446.33" x2="3691.71" y2="6446.33" stroke="white" stroke-opacity="0.1" stroke-width="2"/>
<line x1="3723.81" y1="6476.87" x2="3723.81" y2="6418.37" stroke="white" stroke-opacity="0.1" stroke-width="2"/>
<line x1="5001" y1="4069.72" x2="4939.59" y2="4069.72" stroke="white" stroke-opacity="0.1" stroke-width="2"/>
<line x1="4971.7" y1="4100.26" x2="4971.7" y2="4041.75" stroke="white" stroke-opacity="0.1" stroke-width="2"/>
<line x1="5001" y1="5258.03" x2="4939.59" y2="5258.03" stroke="white" stroke-opacity="0.1" stroke-width="2"/>
<line x1="4971.7" y1="5288.56" x2="4971.7" y2="5230.06" stroke="white" stroke-opacity="0.1" stroke-width="2"/>
<line x1="5001" y1="6446.33" x2="4939.59" y2="6446.33" stroke="white" stroke-opacity="0.1" stroke-width="2"/>
<line x1="4971.7" y1="6476.87" x2="4971.7" y2="6418.37" stroke="white" stroke-opacity="0.1" stroke-width="2"/>
<line x1="5001" y1="1693.1" x2="4939.59" y2="1693.1" stroke="white" stroke-opacity="0.1" stroke-width="2"/>
<line x1="4971.7" y1="1723.64" x2="4971.7" y2="1665.14" stroke="white" stroke-opacity="0.1" stroke-width="2"/>
<line x1="5001" y1="504.798" x2="4939.59" y2="504.798" stroke="white" stroke-opacity="0.1" stroke-width="2"/>
<line x1="4971.7" y1="535.336" x2="4971.7" y2="476.835" stroke="white" stroke-opacity="0.1" stroke-width="2"/>
<line x1="3752.15" y1="504.798" x2="3690.74" y2="504.798" stroke="white" stroke-opacity="0.1" stroke-width="2"/>
<line x1="3722.85" y1="535.336" x2="3722.85" y2="476.835" stroke="white" stroke-opacity="0.1" stroke-width="2"/>
<line x1="2504.74" y1="504.798" x2="2443.33" y2="504.798" stroke="white" stroke-opacity="0.1" stroke-width="2"/>
<line x1="2475.44" y1="535.336" x2="2475.44" y2="476.835" stroke="white" stroke-opacity="0.1" stroke-width="2"/>
<rect x="1226.58" y="4139.15" width="58.635" height="61.4108" transform="rotate(-90 1226.58 4139.15)" fill="#4B4B4B" fill-opacity="0.02"/>
<rect x="1227.58" y="4138.15" width="56.635" height="59.4108" transform="rotate(-90 1227.58 4138.15)" stroke="white" stroke-opacity="0.1" stroke-width="2"/>
<rect x="3660.04" y="2889.49" width="58.635" height="61.4108" transform="rotate(-90 3660.04 2889.49)" fill="#4B4B4B" fill-opacity="0.02"/>
<rect x="3661.04" y="2888.49" width="56.635" height="59.4108" transform="rotate(-90 3661.04 2888.49)" stroke="white" stroke-opacity="0.1" stroke-width="2"/>
<rect x="4907.93" y="2948.12" width="58.635" height="61.4108" transform="rotate(-90 4907.93 2948.12)" fill="#4B4B4B" fill-opacity="0.02"/>
<rect x="4908.93" y="2947.12" width="56.635" height="59.4108" transform="rotate(-90 4908.93 2947.12)" stroke="white" stroke-opacity="0.1" stroke-width="2"/>
<rect x="-20.2935" y="4080.51" width="58.635" height="61.4108" transform="rotate(-90 -20.2935 4080.51)" fill="#4B4B4B" fill-opacity="0.02"/>
<rect x="-19.2935" y="4079.51" width="56.635" height="59.4108" transform="rotate(-90 -19.2935 4079.51)" stroke="white" stroke-opacity="0.1" stroke-width="2"/>
<rect x="1164.69" y="1698.47" width="58.635" height="61.4108" transform="rotate(-90 1164.69 1698.47)" fill="#4B4B4B" fill-opacity="0.02"/>
<rect x="1165.69" y="1697.47" width="56.635" height="59.4108" transform="rotate(-90 1165.69 1697.47)" stroke="white" stroke-opacity="0.1" stroke-width="2"/>
<rect x="2474.52" y="566.079" width="58.635" height="61.4108" transform="rotate(-90 2474.52 566.079)" fill="#4B4B4B" fill-opacity="0.02"/>
<rect x="2475.52" y="565.079" width="56.635" height="59.4108" transform="rotate(-90 2475.52 565.079)" stroke="white" stroke-opacity="0.1" stroke-width="2"/>
<rect x="2412.63" y="566.079" width="58.635" height="61.4108" transform="rotate(-90 2412.63 566.079)" fill="#4B4B4B" fill-opacity="0.02"/>
<rect x="2413.63" y="565.079" width="56.635" height="59.4108" transform="rotate(-90 2413.63 565.079)" stroke="white" stroke-opacity="0.1" stroke-width="2"/>
<rect x="3722.41" y="5330.17" width="58.635" height="61.4108" transform="rotate(-90 3722.41 5330.17)" fill="#4B4B4B" fill-opacity="0.02"/>
<rect x="3723.41" y="5329.17" width="56.635" height="59.4108" transform="rotate(-90 3723.41 5329.17)" stroke="white" stroke-opacity="0.1" stroke-width="2"/>
<path d="M578.544 1770.95V121.172L1928.74 946.063L578.544 1770.95Z" stroke="white" stroke-opacity="0.27" stroke-width="2"/>
<path d="M1454.38 1770.95V121.172L2804.58 946.063L1454.38 1770.95Z" stroke="white" stroke-opacity="0.27" stroke-width="2"/>
<rect x="2412.63" y="6462.56" width="58.635" height="61.4108" transform="rotate(-90 2412.63 6462.56)" fill="#4B4B4B" fill-opacity="0.02"/>
<rect x="2413.63" y="6461.56" width="56.635" height="59.4108" transform="rotate(-90 2413.63 6461.56)" stroke="white" stroke-opacity="0.1" stroke-width="2"/>
<rect x="2474.52" y="6462.56" width="58.635" height="61.4108" transform="rotate(-90 2474.52 6462.56)" fill="#4B4B4B" fill-opacity="0.02"/>
<rect x="2475.52" y="6461.56" width="56.635" height="59.4108" transform="rotate(-90 2475.52 6461.56)" stroke="white" stroke-opacity="0.1" stroke-width="2"/>
<rect width="1191.02" height="1247.89" transform="matrix(0 1 1 0 1226.58 507.443)" fill="#4B4B4B" fill-opacity="0.02" stroke="white" stroke-opacity="0.1" stroke-width="2"/>
<rect width="1191.02" height="1247.89" transform="matrix(0 1 1 0 2474.04 507.443)" fill="#4B4B4B" fill-opacity="0.02" stroke="white" stroke-opacity="0.1" stroke-width="2"/>
<rect width="2382.05" height="2495.77" transform="matrix(0 1 1 0 -21.2524 1698.47)" fill="#4B4B4B" fill-opacity="0.02" stroke="white" stroke-opacity="0.1" stroke-width="2"/>
<rect width="2382.05" height="2495.77" transform="matrix(0 1 1 0 2474.52 2889.49)" fill="#4B4B4B" fill-opacity="0.02" stroke="white" stroke-opacity="0.1" stroke-width="2"/>
<rect width="1191.02" height="1247.89" transform="matrix(0 1 1 0 2474.52 1698.47)" fill="#4B4B4B" fill-opacity="0.02" stroke="white" stroke-opacity="0.1" stroke-width="2"/>
<rect width="1191.02" height="1247.89" transform="matrix(0 1 1 0 1226.58 4080.51)" fill="#4B4B4B" fill-opacity="0.02" stroke="white" stroke-opacity="0.1" stroke-width="2"/>
<rect width="1191.02" height="1247.89" transform="matrix(0 1 1 0 1226.58 5271.53)" fill="#4B4B4B" fill-opacity="0.02" stroke="white" stroke-opacity="0.1" stroke-width="2"/>
<rect width="1191.02" height="1247.89" transform="matrix(0 1 1 0 2474.04 5271.53)" fill="#4B4B4B" fill-opacity="0.02" stroke="white" stroke-opacity="0.1" stroke-width="2"/>
<ellipse cx="1191.02" cy="1247.41" rx="1191.02" ry="1247.41" transform="matrix(0 1 1 0 -20.2935 2889.49)" fill="#4B4B4B" fill-opacity="0.02" stroke="white" stroke-opacity="0.1" stroke-width="2"/>
<ellipse cx="1191.02" cy="1247.41" rx="1191.02" ry="1247.41" transform="matrix(0 1 1 0 2474.52 1698.47)" fill="#4B4B4B" fill-opacity="0.02" stroke="white" stroke-opacity="0.1" stroke-width="2"/>
<ellipse cx="595.511" cy="623.704" rx="595.511" ry="623.704" transform="matrix(0 1 1 0 3098.22 5867.05)" fill="#4B4B4B" fill-opacity="0.02" stroke="white" stroke-opacity="0.1" stroke-width="2"/>
<ellipse cx="595.511" cy="623.704" rx="595.511" ry="623.704" transform="matrix(0 1 1 0 603.36 -88.0679)" fill="#4B4B4B" fill-opacity="0.02" stroke="white" stroke-opacity="0.1" stroke-width="2"/>
<line x1="1257.77" y1="2881.41" x2="1196.36" y2="2881.41" stroke="white" stroke-opacity="0.1" stroke-width="2"/>
<line x1="1228.46" y1="2911.95" x2="1228.46" y2="2853.45" stroke="white" stroke-opacity="0.1" stroke-width="2"/>
<line x1="10.4111" y1="2881.41" x2="-50.9997" y2="2881.41" stroke="white" stroke-opacity="0.1" stroke-width="2"/>
<line x1="10.4111" y1="5228.78" x2="-50.9997" y2="5228.78" stroke="white" stroke-opacity="0.1" stroke-width="2"/>
<line x1="10.4111" y1="6446.33" x2="-50.9997" y2="6446.33" stroke="white" stroke-opacity="0.1" stroke-width="2"/>
<line x1="1257.77" y1="6446.33" x2="1196.36" y2="6446.33" stroke="white" stroke-opacity="0.1" stroke-width="2"/>
<line x1="1228.46" y1="6476.87" x2="1228.46" y2="6418.37" stroke="white" stroke-opacity="0.1" stroke-width="2"/>
<line x1="2504.27" y1="6446.33" x2="2442.85" y2="6446.33" stroke="white" stroke-opacity="0.1" stroke-width="2"/>
<line x1="2474.96" y1="6476.87" x2="2474.96" y2="6418.37" stroke="white" stroke-opacity="0.1" stroke-width="2"/>
<line x1="10.4111" y1="504.798" x2="-50.9997" y2="504.798" stroke="white" stroke-opacity="0.1" stroke-width="2"/>
<line x1="10.4111" y1="1693.1" x2="-50.9997" y2="1693.1" stroke="white" stroke-opacity="0.1" stroke-width="2"/>
<line x1="1257.77" y1="504.798" x2="1196.36" y2="504.798" stroke="white" stroke-opacity="0.1" stroke-width="2"/>
<line x1="1228.46" y1="535.336" x2="1228.46" y2="476.835" stroke="white" stroke-opacity="0.1" stroke-width="2"/>
<line x1="3753.12" y1="4069.72" x2="3691.71" y2="4069.72" stroke="white" stroke-opacity="0.1" stroke-width="2"/>
<line x1="3723.81" y1="4100.26" x2="3723.81" y2="4041.75" stroke="white" stroke-opacity="0.1" stroke-width="2"/>
<line x1="3753.12" y1="6446.33" x2="3691.71" y2="6446.33" stroke="white" stroke-opacity="0.1" stroke-width="2"/>
<line x1="3723.81" y1="6476.87" x2="3723.81" y2="6418.37" stroke="white" stroke-opacity="0.1" stroke-width="2"/>
<line x1="5001" y1="4069.72" x2="4939.59" y2="4069.72" stroke="white" stroke-opacity="0.1" stroke-width="2"/>
<line x1="4971.7" y1="4100.26" x2="4971.7" y2="4041.75" stroke="white" stroke-opacity="0.1" stroke-width="2"/>
<line x1="5001" y1="5258.03" x2="4939.59" y2="5258.03" stroke="white" stroke-opacity="0.1" stroke-width="2"/>
<line x1="4971.7" y1="5288.56" x2="4971.7" y2="5230.06" stroke="white" stroke-opacity="0.1" stroke-width="2"/>
<line x1="5001" y1="6446.33" x2="4939.59" y2="6446.33" stroke="white" stroke-opacity="0.1" stroke-width="2"/>
<line x1="4971.7" y1="6476.87" x2="4971.7" y2="6418.37" stroke="white" stroke-opacity="0.1" stroke-width="2"/>
<line x1="5001" y1="1693.1" x2="4939.59" y2="1693.1" stroke="white" stroke-opacity="0.1" stroke-width="2"/>
<line x1="4971.7" y1="1723.64" x2="4971.7" y2="1665.14" stroke="white" stroke-opacity="0.1" stroke-width="2"/>
<line x1="5001" y1="504.798" x2="4939.59" y2="504.798" stroke="white" stroke-opacity="0.1" stroke-width="2"/>
<line x1="4971.7" y1="535.336" x2="4971.7" y2="476.835" stroke="white" stroke-opacity="0.1" stroke-width="2"/>
<line x1="3752.15" y1="504.798" x2="3690.74" y2="504.798" stroke="white" stroke-opacity="0.1" stroke-width="2"/>
<line x1="3722.85" y1="535.336" x2="3722.85" y2="476.835" stroke="white" stroke-opacity="0.1" stroke-width="2"/>
<line x1="2504.74" y1="504.798" x2="2443.33" y2="504.798" stroke="white" stroke-opacity="0.1" stroke-width="2"/>
<line x1="2475.44" y1="535.336" x2="2475.44" y2="476.835" stroke="white" stroke-opacity="0.1" stroke-width="2"/>
<rect x="1226.58" y="4139.15" width="58.635" height="61.4108" transform="rotate(-90 1226.58 4139.15)" fill="#4B4B4B" fill-opacity="0.02"/>
<rect x="1227.58" y="4138.15" width="56.635" height="59.4108" transform="rotate(-90 1227.58 4138.15)" stroke="white" stroke-opacity="0.1" stroke-width="2"/>
<rect x="3660.04" y="2889.49" width="58.635" height="61.4108" transform="rotate(-90 3660.04 2889.49)" fill="#4B4B4B" fill-opacity="0.02"/>
<rect x="3661.04" y="2888.49" width="56.635" height="59.4108" transform="rotate(-90 3661.04 2888.49)" stroke="white" stroke-opacity="0.1" stroke-width="2"/>
<rect x="4907.93" y="2948.12" width="58.635" height="61.4108" transform="rotate(-90 4907.93 2948.12)" fill="#4B4B4B" fill-opacity="0.02"/>
<rect x="4908.93" y="2947.12" width="56.635" height="59.4108" transform="rotate(-90 4908.93 2947.12)" stroke="white" stroke-opacity="0.1" stroke-width="2"/>
<rect x="-20.2935" y="4080.51" width="58.635" height="61.4108" transform="rotate(-90 -20.2935 4080.51)" fill="#4B4B4B" fill-opacity="0.02"/>
<rect x="-19.2935" y="4079.51" width="56.635" height="59.4108" transform="rotate(-90 -19.2935 4079.51)" stroke="white" stroke-opacity="0.1" stroke-width="2"/>
<rect x="1164.69" y="1698.47" width="58.635" height="61.4108" transform="rotate(-90 1164.69 1698.47)" fill="#4B4B4B" fill-opacity="0.02"/>
<rect x="1165.69" y="1697.47" width="56.635" height="59.4108" transform="rotate(-90 1165.69 1697.47)" stroke="white" stroke-opacity="0.1" stroke-width="2"/>
<rect x="2474.52" y="566.079" width="58.635" height="61.4108" transform="rotate(-90 2474.52 566.079)" fill="#4B4B4B" fill-opacity="0.02"/>
<rect x="2475.52" y="565.079" width="56.635" height="59.4108" transform="rotate(-90 2475.52 565.079)" stroke="white" stroke-opacity="0.1" stroke-width="2"/>
<rect x="2412.63" y="566.079" width="58.635" height="61.4108" transform="rotate(-90 2412.63 566.079)" fill="#4B4B4B" fill-opacity="0.02"/>
<rect x="2413.63" y="565.079" width="56.635" height="59.4108" transform="rotate(-90 2413.63 565.079)" stroke="white" stroke-opacity="0.1" stroke-width="2"/>
<rect x="3722.41" y="5330.17" width="58.635" height="61.4108" transform="rotate(-90 3722.41 5330.17)" fill="#4B4B4B" fill-opacity="0.02"/>
<rect x="3723.41" y="5329.17" width="56.635" height="59.4108" transform="rotate(-90 3723.41 5329.17)" stroke="white" stroke-opacity="0.1" stroke-width="2"/>
<path d="M578.544 1770.95V121.172L1928.74 946.063L578.544 1770.95Z" stroke="white" stroke-opacity="0.27" stroke-width="2"/>
<path d="M1454.38 1770.95V121.172L2804.58 946.063L1454.38 1770.95Z" stroke="white" stroke-opacity="0.27" stroke-width="2"/>
<rect x="2412.63" y="6462.56" width="58.635" height="61.4108" transform="rotate(-90 2412.63 6462.56)" fill="#4B4B4B" fill-opacity="0.02"/>
<rect x="2413.63" y="6461.56" width="56.635" height="59.4108" transform="rotate(-90 2413.63 6461.56)" stroke="white" stroke-opacity="0.1" stroke-width="2"/>
<rect x="2474.52" y="6462.56" width="58.635" height="61.4108" transform="rotate(-90 2474.52 6462.56)" fill="#4B4B4B" fill-opacity="0.02"/>
<rect x="2475.52" y="6461.56" width="56.635" height="59.4108" transform="rotate(-90 2475.52 6461.56)" stroke="white" stroke-opacity="0.1" stroke-width="2"/>
<path d="M2161.13 4480.07V3864.93M1813.27 4272.83H2402.09M2421 4172.5C2421 4345.09 2281.09 4485 2108.5 4485C1935.91 4485 1796 4345.09 1796 4172.5C1796 3999.91 1935.91 3860 2108.5 3860C2281.09 3860 2421 3999.91 2421 4172.5ZM2358.5 4273.65C2358.5 4382.2 2270.5 4470.2 2161.95 4470.2C2053.4 4470.2 1965.41 4382.2 1965.41 4273.65C1965.41 4165.1 2053.4 4077.11 2161.95 4077.11C2270.5 4077.11 2358.5 4165.1 2358.5 4273.65Z" stroke="white" stroke-opacity="0.46" stroke-width="4"/>
</svg>
