<svg width="1032" height="43" viewBox="0 0 1032 43" fill="none" xmlns="http://www.w3.org/2000/svg">
<line x1="12" y1="42.8838" x2="12" y2="9.53674e-05" stroke="white" stroke-width="24"/>
<line x1="106.082" y1="42.8838" x2="106.082" y2="9.53674e-05" stroke="white" stroke-width="21"/>
<line x1="199.664" y1="42.8838" x2="199.664" y2="9.53674e-05" stroke="white" stroke-width="19"/>
<line x1="292.246" y1="42.8838" x2="292.246" y2="9.53674e-05" stroke="white" stroke-width="19"/>
<line x1="386.828" y1="42.8838" x2="386.828" y2="9.53674e-05" stroke="white" stroke-width="15"/>
<line x1="479.909" y1="42.8838" x2="479.909" y2="9.53674e-05" stroke="white" stroke-width="14"/>
<line x1="572.492" y1="42.8838" x2="572.492" y2="9.53674e-05" stroke="white" stroke-width="14"/>
<line x1="665.573" y1="42.8838" x2="665.573" y2="9.53674e-05" stroke="white" stroke-width="13"/>
<line x1="749.254" y1="42.8838" x2="749.254" y2="9.53674e-05" stroke="white" stroke-width="10"/>
<line x1="842.336" y1="42.8838" x2="842.336" y2="9.53674e-05" stroke="white" stroke-width="9"/>
<line x1="935.418" y1="42.8838" x2="935.418" y2="9.53674e-05" stroke="white" stroke-width="8"/>
<line x1="1028.5" y1="42.8838" x2="1028.5" y2="9.53674e-05" stroke="white" stroke-width="7"/>
</svg>
