<svg width="4366" height="628" viewBox="0 0 4366 628" fill="none" xmlns="http://www.w3.org/2000/svg">
<path d="M0 548.637H45.8128V79.3626H0V12.0769H216.084C241.536 12.0769 263.933 16.1026 283.276 24.1538C303.128 32.2051 319.672 43.1319 332.907 56.9341C346.651 70.7363 356.831 87.4139 363.449 106.967C370.575 125.945 374.138 146.648 374.138 169.077V179.429C374.138 196.106 371.848 211.346 367.266 225.148C362.685 238.951 356.322 251.315 348.178 262.242C340.033 273.168 330.362 282.658 319.163 290.709C308.473 298.185 296.765 303.936 284.04 307.962V318.313C309.491 326.364 330.871 341.892 348.178 364.896C365.485 387.324 374.138 414.929 374.138 447.709V458.06C374.138 480.489 370.575 501.48 363.449 521.033C356.831 540.011 346.651 556.689 332.907 571.066C319.672 584.868 303.128 595.795 283.276 603.846C263.933 611.897 241.536 615.923 216.084 615.923H0V548.637ZM109.951 548.637H211.503C241.536 548.637 265.969 540.299 284.803 523.621C303.637 506.368 313.054 482.789 313.054 452.885V447.709C313.054 416.654 304.146 392.212 286.33 374.385C268.514 355.982 244.335 346.78 213.793 346.78H109.951V548.637ZM109.951 279.495H213.793C244.335 279.495 268.514 270.581 286.33 252.753C304.146 234.925 313.054 210.484 313.054 179.429V174.253C313.054 144.923 303.637 121.919 284.803 105.242C265.969 87.989 241.536 79.3626 211.503 79.3626H109.951V279.495Z" fill="white"/>
<path d="M419.42 12.0769H758.435V79.3626H620.997V548.637H758.435V615.923H419.42V548.637H556.859V79.3626H419.42V12.0769Z" fill="white"/>
<path d="M799.899 12.0769H1175.56V79.3626H1019.8V615.923H955.663V79.3626H799.899V12.0769Z" fill="white"/>
<path d="M1557.57 615.923H1440.75L1391.12 43.1319H1381.96L1332.32 615.923H1215.5L1161.29 12.0769H1219.32L1270.48 584.868H1279.64L1327.74 12.0769H1445.33L1493.43 584.868H1502.6L1553.75 12.0769H1611.78L1557.57 615.923Z" fill="white"/>
<path d="M1899.87 465.824H1670.81L1631.87 615.923H1563.15L1725.02 12.0769H1845.66L2007.53 615.923H1938.81L1899.87 465.824ZM1780.76 43.1319L1688.37 398.538H1882.31L1789.92 43.1319H1780.76Z" fill="white"/>
<path d="M2351.36 615.923H2287.22V414.066C2287.22 399.114 2284.17 387.612 2278.06 379.56C2271.95 371.509 2261.26 367.484 2245.99 367.484H2079.54V615.923H2015.4V12.0769H2206.29C2233.78 12.0769 2257.7 16.6777 2278.06 25.8791C2298.42 34.5055 2315.22 46.2949 2328.46 61.2473C2342.2 76.1996 2352.38 93.7399 2359 113.868C2366.12 133.421 2369.69 154.125 2369.69 175.978V201.857C2369.69 224.286 2364.09 246.714 2352.89 269.143C2342.2 291.571 2325.4 308.824 2302.5 320.901V331.253C2317.77 334.128 2329.73 341.029 2338.38 351.956C2347.04 362.883 2351.36 378.41 2351.36 398.538V615.923ZM2079.54 300.198H2198.65C2234.79 300.198 2261.52 291.571 2278.83 274.319C2296.64 256.491 2305.55 230.612 2305.55 196.681V181.154C2305.55 150.674 2296.64 126.233 2278.83 107.83C2261.52 88.8517 2234.79 79.3626 2198.65 79.3626H2079.54V300.198Z" fill="white"/>
<path d="M2708.94 186.33C2708.94 166.777 2705.37 149.524 2698.25 134.571C2691.63 119.619 2682.47 107.255 2670.76 97.478C2659.05 87.7015 2645.56 80.2253 2630.29 75.0495C2615.02 69.8736 2598.98 67.2857 2582.19 67.2857C2567.42 67.2857 2553.43 69.5861 2540.19 74.1868C2526.96 78.2124 2514.99 84.2509 2504.3 92.3022C2494.12 100.353 2485.98 110.418 2479.87 122.495C2473.76 133.996 2470.71 147.511 2470.71 163.038V168.214C2470.71 184.892 2473.76 199.269 2479.87 211.346C2485.98 222.848 2494.89 232.912 2506.59 241.538C2518.81 249.59 2533.83 256.491 2551.64 262.242C2569.46 267.418 2590.33 272.018 2614.26 276.044C2670.25 285.821 2711.48 304.511 2737.95 332.115C2764.42 359.145 2777.65 395.663 2777.65 441.67V452.022C2777.65 477.901 2773.58 501.767 2765.44 523.621C2757.8 544.899 2746.09 563.302 2730.31 578.83C2715.04 594.357 2695.95 606.434 2673.05 615.06C2650.14 623.687 2623.67 628 2593.64 628C2559.53 628 2529.25 622.537 2502.78 611.61C2476.82 600.108 2454.93 584.581 2437.11 565.027C2419.81 544.899 2406.57 521.608 2397.41 495.154C2388.25 468.125 2383.66 438.795 2383.66 407.165V381.286H2447.8V401.989C2447.8 454.897 2460.53 494.579 2485.98 521.033C2511.94 547.487 2547.83 560.714 2593.64 560.714C2633.34 560.714 2663.12 550.938 2682.97 531.385C2703.34 511.256 2713.52 484.802 2713.52 452.022V446.846C2713.52 415.216 2703.08 391.062 2682.21 374.385C2661.85 357.707 2628.51 345.63 2582.19 338.154C2555.21 334.128 2530.77 328.09 2508.89 320.038C2487.51 311.412 2469.18 300.485 2453.91 287.258C2438.64 273.456 2426.93 257.066 2418.79 238.088C2410.64 219.11 2406.57 196.681 2406.57 170.802V160.451C2406.57 136.872 2410.9 115.306 2419.55 95.7527C2428.2 76.1996 2440.17 59.2344 2455.44 44.8571C2471.22 30.4799 2489.8 19.5531 2511.18 12.0769C2533.06 4.02564 2556.99 0 2582.95 0C2612.98 0 2639.71 4.88828 2663.12 14.6649C2687.05 24.4414 2707.15 37.6685 2723.44 54.3462C2739.73 70.4487 2751.95 89.7143 2760.09 112.143C2768.75 133.996 2773.07 157 2773.07 181.154V217.385H2708.94V186.33Z" fill="white"/>
<path d="M3327.87 315.725V215.659L3501.96 89.7143V79.3626H3199.6V12.0769H3556.94V122.495L3382.85 248.44V258.791H3413.39C3433.75 258.791 3453.35 262.529 3472.18 270.006C3491.02 277.482 3507.56 288.408 3521.81 302.786C3536.58 317.163 3548.28 334.991 3556.94 356.269C3566.1 376.973 3570.68 401.126 3570.68 428.731V444.258C3570.68 470.137 3566.1 494.291 3556.94 516.72C3547.78 539.148 3535.05 558.701 3518.76 575.379C3502.47 591.482 3483.13 604.421 3460.73 614.198C3438.84 623.399 3414.92 628 3388.96 628C3358.92 628 3331.95 622.824 3308.02 612.473C3284.1 602.121 3263.74 588.031 3246.94 570.203C3230.14 551.8 3217.16 530.522 3208 506.368C3199.34 481.639 3195.02 455.473 3195.02 427.868V381.286H3259.15V422.692C3259.15 444.546 3262.21 464.099 3268.32 481.352C3274.93 498.029 3283.84 512.407 3295.04 524.484C3306.75 535.985 3320.49 544.899 3336.27 551.225C3352.05 557.551 3369.11 560.714 3387.43 560.714C3404.23 560.714 3419.75 557.551 3434.01 551.225C3448.77 544.899 3461.49 536.273 3472.18 525.346C3482.87 513.844 3491.27 500.617 3497.38 485.665C3503.49 470.137 3506.54 453.747 3506.54 436.495V431.319C3506.54 395.088 3496.36 366.908 3476 346.78C3455.64 326.077 3430.19 315.725 3399.65 315.725H3327.87Z" fill="#D2F65A"/>
<path d="M3725.91 567.615C3725.91 550.938 3731 536.848 3741.19 525.346C3751.88 513.269 3764.6 507.231 3779.36 507.231C3794.12 507.231 3806.6 513.269 3816.78 525.346C3827.47 536.848 3832.81 550.938 3832.81 567.615C3832.81 584.293 3827.47 598.67 3816.78 610.747C3806.6 622.249 3794.12 628 3779.36 628C3764.6 628 3751.88 622.249 3741.19 610.747C3731 598.67 3725.91 584.293 3725.91 567.615Z" fill="#D2F65A"/>
<path d="M3990.33 246.714C3990.33 168.502 4006.88 107.83 4039.97 64.6978C4073.05 21.5659 4119.12 0 4178.17 0C4237.22 0 4283.28 21.5659 4316.37 64.6978C4349.46 107.83 4366 168.502 4366 246.714V381.286C4366 461.799 4349.46 523.046 4316.37 565.027C4283.28 607.009 4237.22 628 4178.17 628C4119.12 628 4073.05 607.009 4039.97 565.027C4006.88 523.046 3990.33 461.799 3990.33 381.286V246.714ZM4178.17 562.44C4219.4 562.44 4250.2 546.337 4270.56 514.132C4291.43 481.352 4301.86 435.344 4301.86 376.11V251.89C4301.86 224.286 4299.32 199.269 4294.23 176.841C4289.14 153.837 4281.25 134.284 4270.56 118.181C4260.38 101.504 4247.4 88.5641 4231.62 79.3626C4216.34 70.1612 4198.53 65.5605 4178.17 65.5605C4157.3 65.5605 4139.23 70.1612 4123.96 79.3626C4108.68 88.5641 4095.7 101.504 4085.01 118.181C4074.83 134.284 4067.2 153.837 4062.11 176.841C4057.02 199.269 4054.47 224.286 4054.47 251.89V376.11C4054.47 435.344 4064.65 481.352 4085.01 514.132C4105.88 546.337 4136.94 562.44 4178.17 562.44ZM4129.3 314C4129.3 299.048 4134.14 286.108 4143.81 275.181C4153.48 264.255 4164.93 258.791 4178.17 258.791C4191.4 258.791 4202.86 264.255 4212.53 275.181C4222.2 286.108 4227.03 299.048 4227.03 314C4227.03 328.952 4222.2 341.892 4212.53 352.819C4202.86 363.745 4191.4 369.209 4178.17 369.209C4164.93 369.209 4153.48 363.745 4143.81 352.819C4134.14 341.892 4129.3 328.952 4129.3 314Z" fill="#D2F65A"/>
</svg>
