<svg width="136" height="136" viewBox="0 0 136 136" fill="none" xmlns="http://www.w3.org/2000/svg">
<path d="M45.3335 11.3333V28.3333" stroke="#D2F65A" stroke-width="7" stroke-miterlimit="10" stroke-linecap="round" stroke-linejoin="round"/>
<path d="M90.6665 11.3333V28.3333" stroke="#D2F65A" stroke-width="7" stroke-miterlimit="10" stroke-linecap="round" stroke-linejoin="round"/>
<path d="M19.8335 51.51H116.167" stroke="#D2F65A" stroke-width="7" stroke-miterlimit="10" stroke-linecap="round" stroke-linejoin="round"/>
<path d="M124.667 107.667C124.667 111.917 123.477 115.94 121.38 119.34C117.47 125.913 110.273 130.333 102 130.333C96.2768 130.333 91.0635 128.237 87.0968 124.667C85.3402 123.193 83.8102 121.38 82.6202 119.34C80.5235 115.94 79.3335 111.917 79.3335 107.667C79.3335 95.1433 89.4768 85 102 85C108.8 85 114.863 88.0033 119 92.7066C122.513 96.7299 124.667 101.943 124.667 107.667Z" stroke="#D2F65A" stroke-width="7" stroke-miterlimit="10" stroke-linecap="round" stroke-linejoin="round"/>
<path d="M93.1602 107.667L98.7701 113.277L110.84 102.113" stroke="#D2F65A" stroke-width="7" stroke-linecap="round" stroke-linejoin="round"/>
<path d="M119 48.1666V92.7065C114.863 88.0032 108.8 84.9999 102 84.9999C89.4767 84.9999 79.3333 95.1433 79.3333 107.667C79.3333 111.917 80.5233 115.94 82.62 119.34C83.81 121.38 85.34 123.193 87.0967 124.667H45.3333C25.5 124.667 17 113.333 17 96.3333V48.1666C17 31.1666 25.5 19.8333 45.3333 19.8333H90.6667C110.5 19.8333 119 31.1666 119 48.1666Z" stroke="#D2F65A" stroke-width="7" stroke-miterlimit="10" stroke-linecap="round" stroke-linejoin="round"/>
<path d="M67.9746 77.6334H68.0255" stroke="#D2F65A" stroke-width="7" stroke-linecap="round" stroke-linejoin="round"/>
<path d="M47.0009 77.6334H47.0518" stroke="#D2F65A" stroke-width="7" stroke-linecap="round" stroke-linejoin="round"/>
<path d="M47.0009 94.6334H47.0518" stroke="#D2F65A" stroke-width="7" stroke-linecap="round" stroke-linejoin="round"/>
</svg>
